<svg xmlns="http://www.w3.org/2000/svg" width="266.474" height="344.437" viewBox="0 0 266.474 344.437">
  <g id="Group_86" data-name="Group 86" transform="translate(0.25)">
    <g id="Group_73" data-name="Group 73" transform="translate(8.948)">
      <path id="Path_135" data-name="Path 135" d="M270.02,172.578c1.9,69.173,103.622,54.87,31.616,107.608-47.7,34.932-27.011,26.2-72.03,36.03C145.815,334.51,77.086,198.149,129.287,129.879,194.186,45,268.558,119.186,270.02,172.578Z" transform="translate(-111.135 -91.349)" fill="#e9f9f3"/>
    </g>
    <g id="Group_74" data-name="Group 74" transform="translate(0 26.357)">
      <circle id="Ellipse_6" data-name="Ellipse 6" cx="25.763" cy="25.763" r="25.763" fill="#fff" stroke="#252d3b" stroke-linecap="round" stroke-miterlimit="10" stroke-width="0.5"/>
      <path id="Path_136" data-name="Path 136" d="M118.084,108.7v9.79l10.628,8.906" transform="translate(-92.184 -92.728)" fill="#fff" stroke="#252d3b" stroke-linecap="round" stroke-miterlimit="10" stroke-width="0.5"/>
    </g>
    <g id="Group_85" data-name="Group 85" transform="translate(4.166 52.63)">
      <g id="Group_78" data-name="Group 78" transform="translate(44.487 220.559)">
        <rect id="Rectangle_40" data-name="Rectangle 40" width="11.02" height="64.85" transform="translate(33.717)" fill="#252d3b"/>
        <g id="Group_77" data-name="Group 77" transform="translate(0 59.15)">
          <g id="Group_76" data-name="Group 76">
            <g id="Group_75" data-name="Group 75">
              <circle id="Ellipse_7" data-name="Ellipse 7" cx="6.049" cy="6.049" r="6.049" fill="#252d3b"/>
              <circle id="Ellipse_8" data-name="Ellipse 8" cx="6.049" cy="6.049" r="6.049" transform="translate(65.409)" fill="#252d3b"/>
            </g>
            <line id="Line_18" data-name="Line 18" x2="65.409" transform="translate(4.963 6.049)" fill="none" stroke="#252d3b" stroke-linecap="round" stroke-miterlimit="10" stroke-width="0.5"/>
          </g>
        </g>
      </g>
      <circle id="Ellipse_9" data-name="Ellipse 9" cx="24.11" cy="24.11" r="24.11" transform="translate(49.617 214.37) rotate(-45)" fill="#a8e6cf"/>
      <path id="Path_137" data-name="Path 137" d="M239.334,304.88H144.265A28.775,28.775,0,0,1,115.478,276.1V192.127a59.4,59.4,0,0,1,59.4-59.4c31.86,0,58.573,26.03,59.378,57.866C235.528,240.6,239.334,304.88,239.334,304.88Z" transform="translate(-100.101 -84.419)" fill="#252d3b"/>
      <path id="Path_138" data-name="Path 138" d="M270.856,156.287l-22.737,16.686-12-12.32-6.831-8.636a54.979,54.979,0,0,0-25.957-18.175.347.347,0,0,1-.146-.049c-6.221-2.22-32.178-10.27-51.108,2.147-19.053,12.491-31.519,61.208-30.567,73.528.756,9.88,12.076,12.417,26.518,10.88-1.927,23.249-4.733,37.837-4.733,37.837l55.085,4.074s5.831-14.2,4.66-28.372c-1.147-13.564,7.563-42.082,7.563-42.082s22.981,17.491,29.64,19.15a29.966,29.966,0,0,0,17.028.146c9.709-2.879,17.028-10.758,22.249-19a83.386,83.386,0,0,0,10.036-23.054Z" transform="translate(-91.496 -89.524)" fill="#fff" stroke="#252d3b" stroke-linecap="round" stroke-miterlimit="10" stroke-width="0.5"/>
      <path id="Path_139" data-name="Path 139" d="M182.721,157.578s7.019-5.872,6.845-13.681-.527-15.533,2.018-14.654,3.815,12.742,3.815,12.742,13.257-9.148,11,.593c0,0,4.586-.578,2.7,4.628,0,0,3.376,1.432,1.271,4.416,0,0,2.854-1.164,1.91,2.137s-7.326,12.315-10.649,14.442C201.625,168.2,184.475,163.457,182.721,157.578Z" transform="translate(-3.302 -89.529)" fill="#fff"/>
      <rect id="Rectangle_41" data-name="Rectangle 41" width="5.747" height="140.994" transform="translate(231.251 128.351)" fill="#252d3b"/>
      <path id="Path_140" data-name="Path 140" d="M293.741,326.138l-69.227-1.108-3.13-14.41-1.5-6.916c-.373-1.732-.832-3.435-1.344-5.125-5.972-19.87-9.873-48.84-5.967-64.006,0,0-11.229,4.242-21.912,4.242-18.636,0-46.059-3.213-56.214-20.88-9.963-17.35-.956-40.557-.956-40.557s103.285-19.5,125.885-11.839c31.011,10.531,31.141,48.764,42.27,75.131-2.44,3.452-9.665,5.255-8.558,14.635,1.205,10.046-19.819,10.356-25.015,14.735-6.387-5.445-2.379-6.255-8.738-17.213,0,0,1,23.69,2.979,42.275.6,5.635,4.5,10,8.382,12.956C281.865,316.521,292.258,316.521,293.741,326.138Z" transform="translate(-79.544 -39.75)" fill="#a8e6cf"/>
      <path id="Path_141" data-name="Path 141" d="M234.939,243.345s1.805-51.055-19.046-66.873c-13.432-10.188-40.731-5.533-68.729-5.477" transform="translate(-54.488 -30.922)" fill="none" stroke="#252d3b" stroke-linecap="round" stroke-miterlimit="10" stroke-width="0.5"/>
      <path id="Path_142" data-name="Path 142" d="M163.569,196.79a49.6,49.6,0,0,1,7.643-6.55" transform="translate(-30.872 -1.622)" fill="none" stroke="#252d3b" stroke-linecap="round" stroke-miterlimit="10" stroke-width="0.5"/>
      <line id="Line_19" data-name="Line 19" y2="21.67" transform="translate(104.705 198.396)" fill="#fff" stroke="#252d3b" stroke-linecap="round" stroke-miterlimit="10" stroke-width="0.5"/>
      <path id="Path_143" data-name="Path 143" d="M239.674,248.632l-69.227-1.108-3.13-14.41c6.179.622,19.648,1.371,27.074-2.73,7.3-4.033,8.19-10.185,13.857-12.791,1.83,5.362,6.245,8.4,11.08,10.3C232.372,233.017,238.191,239.016,239.674,248.632Z" transform="translate(-25.477 37.755)" fill="#fff" stroke="#252d3b" stroke-linecap="round" stroke-miterlimit="10" stroke-width="0.5"/>
      <path id="Path_144" data-name="Path 144" d="M168.436,229.762l.986,4.843,69.326,1.134.022-4.174Z" transform="translate(-23.866 55.272)" fill="#252d3b"/>
      <path id="Path_145" data-name="Path 145" d="M292.9,174.065H165.436a6.043,6.043,0,0,1-6.043-6.043h0a6.045,6.045,0,0,1,6.043-6.045H292.9a6.045,6.045,0,0,1,6.043,6.045h0A6.043,6.043,0,0,1,292.9,174.065Z" transform="translate(-36.884 -42.308)" fill="#e9f9f3"/>
      <path id="Rectangle_42" data-name="Rectangle 42" d="M1.1,0H4.65a1.1,1.1,0,0,1,1.1,1.1v139.9a0,0,0,0,1,0,0H0a0,0,0,0,1,0,0V1.1A1.1,1.1,0,0,1,1.1,0Z" transform="translate(165.223 128.351)" fill="#252d3b"/>
      <rect id="Rectangle_43" data-name="Rectangle 43" width="5.747" height="139.621" transform="translate(231.251 150.944)" fill="#e9f9f3"/>
      <rect id="Rectangle_44" data-name="Rectangle 44" width="5.747" height="139.621" transform="translate(165.223 150.944)" fill="#e9f9f3"/>
      <rect id="Rectangle_45" data-name="Rectangle 45" width="71.923" height="5.164" transform="translate(237.007 245.487) rotate(180)" fill="#252d3b"/>
      <path id="Path_146" data-name="Path 146" d="M254.054,229.587l-66.37-1.1s-2.313-8.3-3.618-13.954c6.782-.41,19.219,2.318,24.249-6.462,4.713-8.187,11.034-11.461,15.052-12.773a31.325,31.325,0,0,0,5.233,9.887,25.116,25.116,0,0,0,8,6.372C241.046,213.9,250.578,219.868,254.054,229.587Z" transform="translate(-1.366 5.66)" fill="#fff" stroke="#252d3b" stroke-linecap="round" stroke-miterlimit="10" stroke-width="0.5"/>
      <path id="Path_147" data-name="Path 147" d="M252.958,209.973l-67.675-1.042,1.2,4a3.271,3.271,0,0,0,3.127,2.332l62.279.081a2.108,2.108,0,0,0,1.983-2.818Z" transform="translate(0.386 25.284)" fill="#252d3b"/>
      <g id="Group_79" data-name="Group 79" transform="translate(15.618 153.208)">
        <path id="Path_148" data-name="Path 148" d="M146.527,182.326h0a6.6,6.6,0,0,1-6.6,6.6H115.577v-13.2h24.349A6.6,6.6,0,0,1,146.527,182.326Z" transform="translate(-115.577 -175.725)" fill="#252d3b"/>
        <path id="Path_149" data-name="Path 149" d="M146.527,191.284h0a6.6,6.6,0,0,1-6.6,6.6H115.577v-13.2h24.349A6.6,6.6,0,0,1,146.527,191.284Z" transform="translate(-115.577 -162.83)" fill="#252d3b"/>
      </g>
      <path id="Path_150" data-name="Path 150" d="M248.744,198.922l21.8-58.1a3.276,3.276,0,0,0-1.917-4.22l-1.417-.532a3.278,3.278,0,0,0-4.22,1.918L243.138,190.9a3.28,3.28,0,0,1-3.069,2.127H181.425a3.275,3.275,0,0,0-3.276,3.276h0a3.277,3.277,0,0,0,3.276,3.279h67.017l.049.02.007-.02h.246Z" transform="translate(-9.884 -79.909)" fill="#252d3b"/>
      <path id="Path_151" data-name="Path 151" d="M156.386,165.219s-13.405-11.29-23.761-11" transform="translate(-75.418 -53.488)" fill="none" stroke="#fff" stroke-linecap="round" stroke-miterlimit="10" stroke-width="0.5"/>
      <path id="Path_152" data-name="Path 152" d="M141.911,142.3s-8.09,20.853-7.514,29.2" transform="translate(-72.908 -70.631)" fill="none" stroke="#fff" stroke-linecap="round" stroke-miterlimit="10" stroke-width="0.5"/>
      <path id="Path_153" data-name="Path 153" d="M152.363,145.732c.351-.527.922-2.147-2.762-13.2s3.859-20.17,13.154-18.416c0,0,9.3-3.859,16.838,2.279s11.576,10.173,11.576,10.173-2.279,9.473-14.908,10S152.363,145.732,152.363,145.732Z" transform="translate(-52.351 -112.923)" fill="#a8e6cf"/>
      <g id="Group_81" data-name="Group 81" transform="translate(95.626 6.309)">
        <g id="Group_80" data-name="Group 80" transform="translate(0 4.607)">
          <path id="Path_154" data-name="Path 154" d="M167.975,122.695c3.686-.32,7.5.644,6.1,4.667a63.846,63.846,0,0,0-1.881,7.428c-2.088,8.785-9.968,11.549-16.208,5.572-6.345-6.072-6.336-10.229-1.281-19.3,3.711-6.658,6.409-2.218,6.409-2.218S162.364,123.185,167.975,122.695Z" transform="translate(-144.507 -117.398)" fill="#fff"/>
          <path id="Path_155" data-name="Path 155" d="M160.09,123.552c-.32.615-.827.986-1.132.827s-.293-.786.027-1.4.825-.986,1.129-.827S160.407,122.937,160.09,123.552Z" transform="translate(-133.453 -110.607)" fill="#252d3b"/>
          <path id="Path_156" data-name="Path 156" d="M156.987,122.248c-.159.666-.568,1.169-.915,1.12s-.5-.622-.339-1.288.568-1.169.915-1.12S157.146,121.584,156.987,122.248Z" transform="translate(-137.869 -112.274)" fill="#252d3b"/>
          <path id="Path_157" data-name="Path 157" d="M160.184,126.7a10.655,10.655,0,0,1-5.172-1.957s-.144,3.784,1.61,4.33S160.184,126.7,160.184,126.7Z" transform="translate(-138.819 -106.823)" fill="none" stroke="#252d3b" stroke-linecap="round" stroke-miterlimit="10" stroke-width="0.5"/>
          <path id="Path_158" data-name="Path 158" d="M165.267,136.172s-3.3,4.686-2.674,9.021c0,0-3.035,7.968-10.1,4.047-4.137-2.3-4.8-7.4-3.562-11.654,0,0,5.23-9.5,6.594-15.15C155.528,122.437,164.781,135.091,165.267,136.172Z" transform="translate(-148.373 -110.143)" fill="#fff"/>
          <path id="Path_159" data-name="Path 159" d="M159.982,131.478a13.608,13.608,0,0,1-6.592-4.913c-2.788-3.835-1.29,6.121,4.906,8.96A9.91,9.91,0,0,1,159.982,131.478Z" transform="translate(-143.089 -105.449)" fill="#252d3b"/>
          <path id="Path_160" data-name="Path 160" d="M159.08,121.1a7.048,7.048,0,0,1,2.654,2.076C162.671,124.515,161.639,119.311,159.08,121.1Z" transform="translate(-132.96 -112.616)" fill="#252d3b"/>
          <path id="Path_161" data-name="Path 161" d="M158.18,120.931a7.069,7.069,0,0,0-2.937.263C154.216,121.673,156.748,117.542,158.18,120.931Z" transform="translate(-138.827 -114.25)" fill="#252d3b"/>
          <path id="Path_162" data-name="Path 162" d="M155.537,123.564s-.868-3.174-3.145-3.833-3.923,6.345,1.012,7.336S155.537,123.564,155.537,123.564Z" transform="translate(-145.76 -114.1)" fill="#fff"/>
          <path id="Path_163" data-name="Path 163" d="M152.417,122.779a2.431,2.431,0,0,0-1.4-2.483" transform="translate(-144.571 -113.225)" fill="none" stroke="#252d3b" stroke-linecap="round" stroke-miterlimit="10" stroke-width="0.5"/>
        </g>
        <path id="Path_164" data-name="Path 164" d="M152.047,126.848s5.306.01,9.082-7.27S150.032,114.826,152.047,126.848Z" transform="translate(-143.355 -115.509)" fill="#a8e6cf"/>
      </g>
      <path id="Path_165" data-name="Path 165" d="M168.848,140.041s-17.745,45.429,5.679,53.946,43.3,12.066,47.2,18.809c0,0-36.554,1.42-52.882,1.066s-47.108,2.464-47.2-26.223" transform="translate(-91.224 -73.886)" fill="#fff" stroke="#252d3b" stroke-linecap="round" stroke-miterlimit="10" stroke-width="0.5"/>
      <path id="Path_166" data-name="Path 166" d="M158,164.48s.024-12.739,3.837-16.313" transform="translate(-38.892 -62.188)" fill="#fff" stroke="#252d3b" stroke-linecap="round" stroke-miterlimit="10" stroke-width="0.5"/>
      <path id="Path_167" data-name="Path 167" d="M153.381,163.779s-9.356,6.238-9.053,16.9" transform="translate(-58.581 -39.714)" fill="none" stroke="#252d3b" stroke-linecap="round" stroke-miterlimit="10" stroke-width="0.5"/>
      <path id="Path_168" data-name="Path 168" d="M152.365,168.481s12.778,1.105,15.494,2.918" transform="translate(-47.001 -32.945)" fill="none" stroke="#252d3b" stroke-linecap="round" stroke-miterlimit="10" stroke-width="0.5"/>
      <path id="Path_169" data-name="Path 169" d="M155.5,167.244s10.566,1.91,13.883,6.035" transform="translate(-42.489 -34.726)" fill="none" stroke="#252d3b" stroke-linecap="round" stroke-miterlimit="10" stroke-width="0.5"/>
      <g id="Group_82" data-name="Group 82" transform="translate(27.328 125.697)">
        <line id="Line_20" data-name="Line 20" x1="18.8" transform="translate(8.237)" fill="#252d3b"/>
        <path id="Path_170" data-name="Path 170" d="M197.85,202.542a38.739,38.739,0,0,0-38.728-38c-.742,0-1.478.027-2.21.068H122.1v22.034h2.032a38.754,38.754,0,0,0,34.993,55.39c.3,0,.585-.017.878-.022v6.3h38V202.542Z" transform="translate(-120.377 -164.306)" fill="#252d3b"/>
      </g>
      <g id="Group_83" data-name="Group 83" transform="translate(40.317 81.886)">
        <path id="Path_171" data-name="Path 171" d="M146.049,173.087s1.713-21.707-11.207-20.812c-16.623,1.154-6.9,46.224.464,57.751l10.422-4.284Z" transform="translate(-125.701 -138.199)" fill="#fff" stroke="#252d3b" stroke-linecap="round" stroke-miterlimit="10" stroke-width="0.5"/>
        <path id="Path_172" data-name="Path 172" d="M142.75,217.377s7.077-22.556,25.586-38.574c22.217-19.226-5.9-48.679-25.586-21.012s-9.046,60.12-9.046,60.12Z" transform="translate(-118.314 -146.489)" fill="#fff" stroke="#252d3b" stroke-linecap="round" stroke-miterlimit="10" stroke-width="0.5"/>
        <path id="Rectangle_46" data-name="Rectangle 46" d="M0,0H23.757a0,0,0,0,1,0,0V31.585a1.592,1.592,0,0,1-1.592,1.592H1.592A1.592,1.592,0,0,1,0,31.585V0A0,0,0,0,1,0,0Z" transform="translate(28.308 99.763) rotate(180)" fill="#a8e6cf"/>
        <path id="Path_173" data-name="Path 173" d="M152.086,154.35s-20.436,15.494-17.931,45.832" transform="translate(-113.838 -135.173)" fill="#fff" stroke="#252d3b" stroke-linecap="round" stroke-miterlimit="10" stroke-width="0.5"/>
      </g>
      <path id="Path_174" data-name="Path 174" d="M136.48,186.787s-12.171-3.118-6.472-28.333c0,0-7.033-21.192-10.412.2S118.923,200.295,136.48,186.787Z" transform="translate(-95.986 -60.855)" fill="#252d3b"/>
      <path id="Path_175" data-name="Path 175" d="M135.554,142.927S110.588,166.52,109.229,218.2s23.461,65.624,30.26,68.685Z" transform="translate(-109.175 -69.731)" fill="#252d3b"/>
      <line id="Line_21" data-name="Line 21" x1="58.179" transform="translate(28.035 182.192)" fill="none" stroke="#fff" stroke-linecap="round" stroke-miterlimit="10" stroke-width="0.5"/>
      <path id="Path_176" data-name="Path 176" d="M148.362,129.139s-1.176,4.96,5.874,8.226,8.616-4.572,8.616-4.572" transform="translate(-52.869 -89.58)" fill="#fff" stroke="#252d3b" stroke-linecap="round" stroke-miterlimit="10" stroke-width="0.5"/>
      <g id="Group_84" data-name="Group 84" transform="translate(103.708 10.179)">
        <path id="Path_177" data-name="Path 177" d="M155.223,125.959a7.27,7.27,0,0,1-3.2-.849.609.609,0,1,1,.539-1.093c1.713.846,3.169.942,4.325.3,2.723-1.522,3.22-6.614,3.225-6.665a.637.637,0,0,1,.664-.551.612.612,0,0,1,.551.664c-.022.234-.559,5.777-3.842,7.616A4.578,4.578,0,0,1,155.223,125.959Z" transform="translate(-151.686 -117.096)" fill="#a8e6cf"/>
      </g>
      <path id="Path_178" data-name="Path 178" d="M196.8,152.75c5.169-7.067-1.552-10.685-1.552-10.685.861-8.275-2.759-13.274-4.828-12.93s0,10.861-1.378,16.2-6.223,10.861-6.223,10.861,5.489,8.838,18.058,12.266c2.752.749,10.283-11.156,11.246-14.627s-1.639-2.7-1.639-2.7c1.832-3.469-1.542-3.854-1.542-3.854s1.447-2.218.29-3.759a2.684,2.684,0,0,0-2.988-.868s.771-2.986-.868-4.142-7.9,1.734-8,2.022" transform="translate(-3.155 -89.61)" fill="none" stroke="#252d3b" stroke-linecap="round" stroke-miterlimit="10" stroke-width="0.5"/>
      <path id="Path_179" data-name="Path 179" d="M196.9,134.668s-2.864,4.128-5.247,5.765c-.917.629-1.761.89-2.344.407" transform="translate(6.187 -81.62)" fill="#fff" stroke="#252d3b" stroke-linecap="round" stroke-miterlimit="10" stroke-width="0.5"/>
      <path id="Path_180" data-name="Path 180" d="M190.439,138.768s-1.92,1.742.6,2.281,6.9-2.369,7.95-4.484" transform="translate(6.801 -78.89)" fill="#fff" stroke="#252d3b" stroke-linecap="round" stroke-miterlimit="10" stroke-width="0.5"/>
      <path id="Path_181" data-name="Path 181" d="M191.873,139.687s-2.459,2.462.481,2.462,6.843-4.262,6.843-4.262" transform="translate(8.486 -76.987)" fill="#fff" stroke="#252d3b" stroke-linecap="round" stroke-miterlimit="10" stroke-width="0.5"/>
      <path id="Path_182" data-name="Path 182" d="M192.392,139.864s-1.381,2.34.839,2.039a7.857,7.857,0,0,0,4.023-2.22" transform="translate(10.009 -74.401)" fill="#fff" stroke="#252d3b" stroke-linecap="round" stroke-miterlimit="10" stroke-width="0.5"/>
      <path id="Path_183" data-name="Path 183" d="M175.349,147.13s-5.04,5.813-2.742,11.036" transform="translate(-18.726 -63.681)" fill="#fff" stroke="#252d3b" stroke-linecap="round" stroke-miterlimit="10" stroke-width="0.5"/>
      <path id="Path_184" data-name="Path 184" d="M184.777,205.42s13.461,0,16.438,8.36" transform="translate(-0.342 20.23)" fill="none" stroke="#252d3b" stroke-linecap="round" stroke-miterlimit="10" stroke-width="0.5"/>
      <path id="Path_185" data-name="Path 185" d="M167.817,226.7s12.761-1.11,14.425,8.321" transform="translate(-24.757 50.804)" fill="none" stroke="#252d3b" stroke-linecap="round" stroke-miterlimit="10" stroke-width="0.5"/>
      <path id="Path_186" data-name="Path 186" d="M163.176,201.131s13.156-7.082,15.94,6.579-7.336,44.829-7.336,44.829" transform="translate(-31.438 11.414)" fill="none" stroke="#fff" stroke-linecap="round" stroke-miterlimit="10" stroke-width="0.5"/>
      <path id="Path_187" data-name="Path 187" d="M188.35,212s13.156-31.624-7.336-29.853" transform="translate(-5.759 -13.371)" fill="none" stroke="#fff" stroke-linecap="round" stroke-miterlimit="10" stroke-width="0.5"/>
      <path id="Path_188" data-name="Path 188" d="M146.371,147.018a8.885,8.885,0,1,0,8.885-8.882A8.883,8.883,0,0,0,146.371,147.018Z" transform="translate(-55.63 -76.628)" fill="#a8e6cf"/>
      <ellipse id="Ellipse_10" data-name="Ellipse 10" cx="6.524" cy="6.037" rx="6.524" ry="6.037" transform="translate(88.8 56.147)" fill="none" stroke="#252d3b" stroke-linecap="round" stroke-miterlimit="10" stroke-width="0.5"/>
    </g>
  </g>
</svg>
