<svg id="Group_62" data-name="Group 62" xmlns="http://www.w3.org/2000/svg" width="261.924" height="351.701" viewBox="0 0 261.924 351.701">
  <g id="Group_46" data-name="Group 46" transform="translate(70.87)">
    <path id="Path_41" data-name="Path 41" d="M587,136.116c13.022,67.963-70.73,66.09,1.276,118.825,47.7,34.934,8.324,55.126,53.343,64.955,83.791,18.294,138.141-115.466,85.943-183.734C662.656,51.281,579.639,97.713,587,136.116Z" transform="translate(-558.688 -88.372)" fill="#e9f9f3"/>
  </g>
  <g id="Group_47" data-name="Group 47" transform="translate(0 36.651)">
    <circle id="Ellipse_3" data-name="Ellipse 3" cx="24.908" cy="24.908" r="24.908" fill="#e9f9f3"/>
    <path id="Path_42" data-name="Path 42" d="M539.821,107.932l.475,15.218,9.749,14.5" transform="translate(-514.977 -96.866)" fill="none" stroke="#252d3b" stroke-linecap="round" stroke-miterlimit="10" stroke-width="0.5"/>
  </g>
  <g id="Group_61" data-name="Group 61" transform="translate(14.993 54.622)">
    <g id="Group_48" data-name="Group 48" transform="translate(52.88 15.017)">
      <path id="Path_43" data-name="Path 43" d="M573.01,143.513s-1.713-21.707,11.2-20.809c16.625,1.151,6.9,46.224-.461,57.749l-10.424-4.284Z" transform="translate(-535.18 -108.627)" fill="#fff" stroke="#252d3b" stroke-linecap="round" stroke-miterlimit="10" stroke-width="0.5"/>
      <path id="Path_44" data-name="Path 44" d="M591.2,187.807s-7.077-22.556-25.586-38.574c-22.219-19.226,5.9-48.679,25.586-21.014s9.043,60.12,9.043,60.12Z" transform="translate(-557.459 -116.918)" fill="#fff" stroke="#252d3b" stroke-linecap="round" stroke-miterlimit="10" stroke-width="0.5"/>
      <rect id="Rectangle_33" data-name="Rectangle 33" width="23.756" height="33.177" transform="translate(29.869 66.586)" fill="#a8e6cf"/>
      <path id="Path_45" data-name="Path 45" d="M565.628,124.778s20.436,15.5,17.931,45.832" transform="translate(-545.699 -105.603)" fill="#fff" stroke="#252d3b" stroke-linecap="round" stroke-miterlimit="10" stroke-width="0.5"/>
    </g>
    <path id="Path_46" data-name="Path 46" d="M587.732,172.987s-12.3,2.279-19.7-3.145c-3.591-2.63-8.6-2.566-11.646.683q-.337.359-.666.766a2.48,2.48,0,0,1-1.981.92h0a2.506,2.506,0,0,1-2.1-3.806c2.718-4.435,6.814-9.412,14.3-11.907,11.18-3.728,23.085.942,23.085.942S585.992,166.029,587.732,172.987Z" transform="translate(-513.487 -47.002)" fill="#fff" stroke="#252d3b" stroke-linecap="round" stroke-miterlimit="10" stroke-width="0.5"/>
    <path id="Path_47" data-name="Path 47" d="M586.131,304.88H681.2A28.775,28.775,0,0,0,709.987,276.1V192.127a59.4,59.4,0,0,0-59.4-59.4c-31.86,0-58.573,26.03-59.379,57.866C589.937,240.6,586.131,304.88,586.131,304.88Z" transform="translate(-463.305 -79.147)" fill="#fff" stroke="#252d3b" stroke-linecap="round" stroke-miterlimit="10" stroke-width="0.5"/>
    <g id="Group_52" data-name="Group 52" transform="translate(140.065 225.831)">
      <rect id="Rectangle_34" data-name="Rectangle 34" width="11.02" height="64.85" transform="translate(43.789 64.85) rotate(180)" fill="#252d3b"/>
      <g id="Group_51" data-name="Group 51" transform="translate(0 59.15)">
        <g id="Group_50" data-name="Group 50">
          <g id="Group_49" data-name="Group 49">
            <path id="Path_48" data-name="Path 48" d="M632.105,233.628a6.048,6.048,0,1,1-6.048-6.048A6.049,6.049,0,0,1,632.105,233.628Z" transform="translate(-554.6 -227.579)" fill="#252d3b"/>
            <circle id="Ellipse_4" data-name="Ellipse 4" cx="6.049" cy="6.049" r="6.049" fill="#252d3b"/>
          </g>
          <line id="Line_14" data-name="Line 14" x1="65.409" transform="translate(7.134 6.049)" fill="none" stroke="#252d3b" stroke-linecap="round" stroke-miterlimit="10" stroke-width="0.5"/>
        </g>
      </g>
    </g>
    <path id="Path_49" data-name="Path 49" d="M568.2,207.373s34.885,1.1,41.57-.559c6.66-1.661,28.128-16.955,28.128-16.955s8.707,28.5,7.56,42.065c-1.171,14.174,4.662,28.389,4.662,28.389l55.085-4.074s-.366-19.638-2.366-43.231a1.011,1.011,0,0,1-.2.246s-.1-1.025-.342-2.854c-1.342-9.907-6.831-43.229-23.151-64.211a50.648,50.648,0,0,0-11.319-10.954c-12.076-8.319-26.279-5.069-36.305,5.64l-19.153,17.816L592.55,179.025,570.838,189.32C557.519,194.324,568.2,207.373,568.2,207.373Z" transform="translate(-494.949 -82.295)" fill="#252d3b"/>
    <path id="Path_50" data-name="Path 50" d="M560.066,326.138l69.227-1.108,3.132-14.41,1.5-6.916c.373-1.732.832-3.435,1.344-5.125,5.972-19.87,9.873-48.84,5.967-64.006,0,0,11.229,4.242,21.912,4.242,18.636,0,46.058-3.213,56.214-20.88,9.963-17.35.956-40.557.956-40.557s-103.285-19.5-125.885-11.839c-31.009,10.531-31.141,48.764-42.268,75.131,2.437,3.452,9.666,5.255,8.556,14.635-1.205,10.046,19.819,10.356,25.015,14.735,6.387-5.445,2.379-6.255,8.739-17.213,0,0-1,23.69-2.979,42.275-.6,5.635-4.5,10-8.382,12.956C571.942,316.521,561.549,316.521,560.066,326.138Z" transform="translate(-512.205 -34.479)" fill="#a8e6cf"/>
    <path id="Path_51" data-name="Path 51" d="M569.258,243.228s-1.805-51.055,19.048-66.873c13.43-10.188,34.52-5.15,62.521-5.094" transform="translate(-487.651 -25.534)" fill="none" stroke="#252d3b" stroke-linecap="round" stroke-miterlimit="10" stroke-width="0.5"/>
    <g id="Group_53" data-name="Group 53" transform="translate(157.104 130.968)">
      <line id="Line_15" data-name="Line 15" x2="18.8" transform="translate(50.589)" fill="none" stroke="#252d3b" stroke-linecap="round" stroke-miterlimit="10" stroke-width="0.5"/>
      <path id="Path_52" data-name="Path 52" d="M600.336,202.542a38.739,38.739,0,0,1,38.728-38c.742,0,1.478.027,2.21.068h34.815v22.034h-2.032a38.754,38.754,0,0,1-34.993,55.39c-.3,0-.585-.017-.878-.022v6.3h-38V202.542Z" transform="translate(-600.182 -164.306)" fill="#fff"/>
    </g>
    <path id="Path_53" data-name="Path 53" d="M593.32,196.79a49.6,49.6,0,0,0-7.643-6.55" transform="translate(-463.958 3.65)" fill="none" stroke="#252d3b" stroke-linecap="round" stroke-miterlimit="10" stroke-width="0.5"/>
    <path id="Path_54" data-name="Path 54" d="M563.67,157.543a24.426,24.426,0,0,0-10.485,7.419" transform="translate(-510.732 -43.419)" fill="#fff" stroke="#252d3b" stroke-linecap="round" stroke-miterlimit="10" stroke-width="0.5"/>
    <path id="Path_55" data-name="Path 55" d="M570.993,158.01s-9.256.732-13.125,4.442" transform="translate(-503.991 -42.747)" fill="#fff" stroke="#252d3b" stroke-linecap="round" stroke-miterlimit="10" stroke-width="0.5"/>
    <line id="Line_16" data-name="Line 16" y2="21.67" transform="translate(157.353 203.667)" fill="#fff" stroke="#252d3b" stroke-linecap="round" stroke-miterlimit="10" stroke-width="0.5"/>
    <path id="Path_56" data-name="Path 56" d="M555.4,248.632l69.227-1.108,3.132-14.41c-6.182.622-19.651,1.371-27.076-2.73-7.3-4.033-8.19-10.185-13.857-12.791-1.83,5.362-6.245,8.4-11.08,10.3C562.7,233.017,556.885,239.016,555.4,248.632Z" transform="translate(-507.541 43.027)" fill="#fff" stroke="#252d3b" stroke-linecap="round" stroke-miterlimit="10" stroke-width="0.5"/>
    <path id="Path_57" data-name="Path 57" d="M595.583,168.988s-5.267-14.1,1.127-24.259" transform="translate(-452.634 -61.865)" fill="none" stroke="#fff" stroke-linecap="round" stroke-miterlimit="10" stroke-width="0.5"/>
    <path id="Path_58" data-name="Path 58" d="M625.446,229.762l-.986,4.843-69.326,1.134-.022-4.174Z" transform="translate(-507.958 60.543)" fill="#252d3b"/>
    <path id="Path_59" data-name="Path 59" d="M541.828,174.065H669.289a6.043,6.043,0,0,0,6.043-6.043h0a6.045,6.045,0,0,0-6.043-6.045H541.828a6.047,6.047,0,0,0-6.045,6.045h0A6.045,6.045,0,0,0,541.828,174.065Z" transform="translate(-535.783 -37.036)" fill="#e9f9f3"/>
    <path id="Rectangle_35" data-name="Rectangle 35" d="M0,0H5.747a0,0,0,0,1,0,0V139.9a1.1,1.1,0,0,1-1.1,1.1H1.1A1.1,1.1,0,0,1,0,139.9V0A0,0,0,0,1,0,0Z" transform="translate(96.835 274.616) rotate(180)" fill="#252d3b"/>
    <g id="Group_54" data-name="Group 54" transform="translate(25.061 133.623)">
      <rect id="Rectangle_36" data-name="Rectangle 36" width="5.747" height="140.994" transform="translate(5.747 140.994) rotate(180)" fill="#252d3b"/>
      <rect id="Rectangle_37" data-name="Rectangle 37" width="5.747" height="139.621" transform="translate(5.747 162.214) rotate(180)" fill="#e9f9f3"/>
    </g>
    <rect id="Rectangle_38" data-name="Rectangle 38" width="5.747" height="139.621" transform="translate(96.835 295.837) rotate(180)" fill="#e9f9f3"/>
    <rect id="Rectangle_39" data-name="Rectangle 39" width="71.923" height="5.164" transform="translate(25.052 245.594)" fill="#252d3b"/>
    <path id="Path_60" data-name="Path 60" d="M539.624,229.587l66.37-1.1s2.313-8.3,3.618-13.954c-6.782-.41-19.219,2.318-24.249-6.462-4.711-8.187-11.034-11.461-15.052-12.773a31.327,31.327,0,0,1-5.233,9.887,25.117,25.117,0,0,1-8,6.372C552.632,213.9,543.1,219.868,539.624,229.587Z" transform="translate(-530.254 10.932)" fill="#fff" stroke="#252d3b" stroke-linecap="round" stroke-miterlimit="10" stroke-width="0.5"/>
    <path id="Path_61" data-name="Path 61" d="M539.965,209.973l67.675-1.042-1.2,4a3.271,3.271,0,0,1-3.128,2.332l-62.276.081a2.108,2.108,0,0,1-1.986-2.818Z" transform="translate(-531.251 30.556)" fill="#252d3b"/>
    <g id="Group_55" data-name="Group 55" transform="translate(28.86 217.902)">
      <path id="Path_62" data-name="Path 62" d="M547.613,201.6s10.751,6.98,9.58,18.68" transform="translate(-547.613 -197.898)" fill="none" stroke="#252d3b" stroke-linecap="round" stroke-miterlimit="10" stroke-width="0.5"/>
      <path id="Path_63" data-name="Path 63" d="M549.383,200.083s3.5.2,7.819,5.555" transform="translate(-545.065 -200.083)" fill="none" stroke="#252d3b" stroke-linecap="round" stroke-miterlimit="10" stroke-width="0.5"/>
    </g>
    <g id="Group_56" data-name="Group 56" transform="translate(60.781 270.008)">
      <path id="Path_64" data-name="Path 64" d="M560.7,223.244c7.426-.517,16.982,8.351,15.337,16.7" transform="translate(-560.698 -218.879)" fill="none" stroke="#252d3b" stroke-linecap="round" stroke-miterlimit="10" stroke-width="0.5"/>
      <path id="Path_65" data-name="Path 65" d="M564.621,221.442s3.5.2,7.816,5.555" transform="translate(-555.051 -221.442)" fill="none" stroke="#252d3b" stroke-linecap="round" stroke-miterlimit="10" stroke-width="0.5"/>
    </g>
    <g id="Group_57" data-name="Group 57" transform="translate(215.49 158.48)">
      <path id="Path_66" data-name="Path 66" d="M624.115,182.326h0a6.6,6.6,0,0,0,6.6,6.6h24.349v-13.2H630.716A6.6,6.6,0,0,0,624.115,182.326Z" transform="translate(-624.115 -175.725)" fill="#252d3b"/>
      <path id="Path_67" data-name="Path 67" d="M624.115,191.284h0a6.6,6.6,0,0,0,6.6,6.6h24.349v-13.2H630.716A6.6,6.6,0,0,0,624.115,191.284Z" transform="translate(-624.115 -162.83)" fill="#252d3b"/>
    </g>
    <path id="Path_68" data-name="Path 68" d="M596.865,134.312s30.816-12.573,52.462,1.627c19.046,12.49,31.514,61.2,30.565,73.535s-14.581,6-35.917,5.369Z" transform="translate(-447.853 -84.253)" fill="#252d3b"/>
    <path id="Path_69" data-name="Path 69" d="M622.741,158.723s-22.983,11.863-21.5,22.244,3.042,10.636,3.042,10.636,6-15.354,31.212-19.063C635.5,172.541,631.638,159.465,622.741,158.723Z" transform="translate(-441.652 -41.721)" fill="#fff" stroke="#252d3b" stroke-linecap="round" stroke-miterlimit="10" stroke-width="0.5"/>
    <g id="Group_60" data-name="Group 60" transform="translate(149.652)">
      <g id="Group_58" data-name="Group 58" transform="translate(5.244)">
        <path id="Path_70" data-name="Path 70" d="M599.277,145.762c23.766,11.924,38.481,3.476,48.135-.934.644-3.428,1.008-8.965-1.669-13.979-1.922-3.6-3.589-5.162-4.838-5.794a3.994,3.994,0,0,1-2.22-3.576c.015-3.886-1.625-6.011-5.255-8.658-6.965-5.069-11.683.82-11.683.82s-.563-2.7-5.779-2.178c-6.157.62-7.714,3.552-10.956,5.365-5.491,3.069-5.491,10.671-2.793,18.394C603.7,139.46,601.563,144.552,599.277,145.762Z" transform="translate(-599.277 -110.762)" fill="#a8e6cf"/>
        <path id="Path_71" data-name="Path 71" d="M612.116,117.545c-3.125-1.983-6.953-2.884-7.565,1.332a63.756,63.756,0,0,1-1.752,7.458c-2.193,8.76,3.527,14.842,11.82,12.412,8.429-2.469,10.334-6.162,10.026-16.538-.229-7.619-4.669-4.918-4.669-4.918S616.87,120.563,612.116,117.545Z" transform="translate(-594.885 -103.389)" fill="#fff"/>
        <path id="Path_72" data-name="Path 72" d="M603.743,119.489c0,.693.281,1.254.622,1.254s.622-.561.622-1.254-.278-1.254-.622-1.254S603.743,118.8,603.743,119.489Z" transform="translate(-592.848 -100.005)" fill="#252d3b"/>
        <path id="Path_73" data-name="Path 73" d="M607.08,119.683c-.163.664-.032,1.3.3,1.415s.729-.324.9-.988.032-1.3-.3-1.417S607.246,119.02,607.08,119.683Z" transform="translate(-588.145 -99.372)" fill="#252d3b"/>
        <path id="Path_74" data-name="Path 74" d="M604.353,122.266a10.658,10.658,0,0,0,5.491.646s-1.615,3.423-3.425,3.1S604.353,122.266,604.353,122.266Z" transform="translate(-591.97 -94.202)" fill="none" stroke="#252d3b" stroke-linecap="round" stroke-miterlimit="10" stroke-width="0.5"/>
        <path id="Path_75" data-name="Path 75" d="M605.892,129.9s.771,5.679-1.783,9.239c0,0-.976,8.468,7.1,8.241,4.73-.132,7.67-4.35,8.531-8.7,0,0-.271-10.836,1.122-16.484C620.861,122.19,606.821,129.16,605.892,129.9Z" transform="translate(-592.374 -94.311)" fill="#fff"/>
        <path id="Path_76" data-name="Path 76" d="M605.035,126.339a13.634,13.634,0,0,0,8.114-1.325c4.242-2.12-1.673,6.026-8.482,5.691A9.9,9.9,0,0,0,605.035,126.339Z" transform="translate(-591.518 -90.754)" fill="#252d3b"/>
        <path id="Path_77" data-name="Path 77" d="M606.943,117.789a7.048,7.048,0,0,0-3.315.622C602.179,119.17,605.491,115.028,606.943,117.789Z" transform="translate(-593.53 -102.03)" fill="#252d3b"/>
        <path id="Path_78" data-name="Path 78" d="M607.576,118.229a7.046,7.046,0,0,1,2.486,1.586C610.752,120.713,610.408,115.88,607.576,118.229Z" transform="translate(-587.33 -100.95)" fill="#252d3b"/>
        <path id="Path_79" data-name="Path 79" d="M611.683,121.854s2.232-2.418,4.555-1.954.559,7.438-4.276,6.043S611.683,121.854,611.683,121.854Z" transform="translate(-584.219 -97.693)" fill="#fff"/>
        <path id="Path_80" data-name="Path 80" d="M611.221,121.992a2.428,2.428,0,0,1,2.386-1.559" transform="translate(-582.083 -96.862)" fill="none" stroke="#252d3b" stroke-linecap="round" stroke-miterlimit="10" stroke-width="0.5"/>
      </g>
      <g id="Group_59" data-name="Group 59" transform="translate(0 15.977)">
        <path id="Path_81" data-name="Path 81" d="M597.737,134.668a.609.609,0,0,1-.159-1.2c.42-.115,10.3-2.964,9.009-15.484a.61.61,0,0,1,.547-.668.586.586,0,0,1,.668.544c1.4,13.574-9.795,16.755-9.907,16.784A.608.608,0,0,1,597.737,134.668Z" transform="translate(-597.127 -117.311)" fill="#a8e6cf"/>
      </g>
      <path id="Path_82" data-name="Path 82" d="M614.225,128.034s-4.711-2.435-4.711-10.636S621.551,118.293,614.225,128.034Z" transform="translate(-579.296 -105.8)" fill="#a8e6cf"/>
    </g>
    <path id="Path_83" data-name="Path 83" d="M558.279,198.922l-21.8-58.1a3.278,3.278,0,0,1,1.918-4.22l1.417-.532a3.277,3.277,0,0,1,4.22,1.918L563.888,190.9a3.278,3.278,0,0,0,3.069,2.127H625.6a3.277,3.277,0,0,1,3.279,3.276h0a3.279,3.279,0,0,1-3.279,3.279H558.584l-.051.02-.007-.02h-.246Z" transform="translate(-535.082 -74.637)" fill="#fff" stroke="#252d3b" stroke-linecap="round" stroke-miterlimit="10" stroke-width="0.5"/>
    <path id="Path_84" data-name="Path 84" d="M610.014,165.219s13.405-11.29,23.764-11" transform="translate(-428.924 -48.216)" fill="none" stroke="#fff" stroke-linecap="round" stroke-miterlimit="10" stroke-width="0.5"/>
    <path id="Path_85" data-name="Path 85" d="M614.919,142.3s8.089,20.853,7.514,29.2" transform="translate(-421.863 -65.359)" fill="none" stroke="#fff" stroke-linecap="round" stroke-miterlimit="10" stroke-width="0.5"/>
    <path id="Path_86" data-name="Path 86" d="M601.641,176.174s2.569-7.824,9.109-11.8" transform="translate(-440.978 -33.578)" fill="none" stroke="#252d3b" stroke-linecap="round" stroke-miterlimit="10" stroke-width="0.5"/>
    <path id="Path_87" data-name="Path 87" d="M602.478,181.738s-1.383-10.79,10.295-16.162" transform="translate(-439.846 -31.855)" fill="none" stroke="#252d3b" stroke-linecap="round" stroke-miterlimit="10" stroke-width="0.5"/>
    <path id="Path_88" data-name="Path 88" d="M601.614,146.547c-2.984,5.165-2.779,10.866.456,12.732s8.275-.805,11.256-5.97,2.779-10.866-.456-12.734S604.6,141.38,601.614,146.547Z" transform="translate(-444.054 -68.702)" fill="#a8e6cf"/>
    <path id="Path_89" data-name="Path 89" d="M600.449,141.794c-2.154,3.732-2.005,7.85.332,9.2s5.979-.583,8.134-4.316,2.008-7.85-.332-9.2S602.605,138.062,600.449,141.794Z" transform="translate(-444.886 -72.921)" fill="none" stroke="#fff" stroke-linecap="round" stroke-miterlimit="10" stroke-width="0.5"/>
    <path id="Path_90" data-name="Path 90" d="M641.507,182.334s-19.485,7.424-44.844-.927c0,0-11.441-4.64-12.678,12.061s2.164,66.8-5.257,84.428" transform="translate(-473.962 -9.918)" fill="none" stroke="#fff" stroke-linecap="round" stroke-miterlimit="10" stroke-width="0.5"/>
  </g>
</svg>
