<svg xmlns="http://www.w3.org/2000/svg" width="323.888" height="255.757" viewBox="0 0 323.888 255.757">
  <g id="Group_72" data-name="Group 72" transform="translate(0.267)">
    <g id="Group_64" data-name="Group 64" transform="translate(39.01)">
      <g id="Group_63" data-name="Group 63">
        <path id="Path_91" data-name="Path 91" d="M564.4,177.075c35.944,25.422-3.1,123.465-103.6,96.825-66.565-17.648-58.893,30.546-99.4-1.983C285.992,211.37,331.448,91.8,433.123,86.307,544.544,80.289,503.2,133.793,564.4,177.075Z" transform="translate(-323.854 -85.841)" fill="#e9f9f3"/>
      </g>
    </g>
    <g id="Group_67" data-name="Group 67" transform="translate(0 97.125)">
      <g id="Group_65" data-name="Group 65" transform="translate(13.149)">
        <path id="Path_92" data-name="Path 92" d="M372.672,190.029s-13.915-55.663-46.659-63.85,4.094,81.859,36.837,97.413Z" transform="translate(-313.254 -125.654)" fill="#fff" stroke="#252d3b" stroke-linecap="round" stroke-miterlimit="10" stroke-width="0.5"/>
        <line id="Line_17" data-name="Line 17" x2="28.134" y2="49.157" transform="translate(15.683 19.184)" fill="#fff" stroke="#252d3b" stroke-linecap="round" stroke-miterlimit="10" stroke-width="0.5"/>
      </g>
      <g id="Group_66" data-name="Group 66" transform="translate(0 58.951)">
        <path id="Path_93" data-name="Path 93" d="M357.753,166.184s-29.5-25.925-45.59-12.515c-17.811,14.84,23.688,52.3,51.848,61.681C364.011,215.35,392.17,194.79,357.753,166.184Z" transform="translate(-307.864 -149.819)" fill="#fff" stroke="#252d3b" stroke-linecap="round" stroke-miterlimit="10" stroke-width="0.5"/>
        <path id="Path_94" data-name="Path 94" d="M313.853,156.836c.927,0,46.066,28.133,46.066,28.133" transform="translate(-299.242 -139.717)" fill="#fff" stroke="#252d3b" stroke-linecap="round" stroke-miterlimit="10" stroke-width="0.5"/>
      </g>
    </g>
    <g id="Group_71" data-name="Group 71" transform="translate(43.295 51.181)">
      <g id="Group_68" data-name="Group 68" transform="translate(45.67)">
        <path id="Path_95" data-name="Path 95" d="M433.978,186.726c-35.391,14-73.033,16.145-86.975,9.778-11.859-25.322,19.553-30.77,20.26-56.8.183-6.684,5.877-8.451,7.924-9.485a6.536,6.536,0,0,0,3.63-5.855c-.022-6.36,2.664-9.836,8.607-14.171,11.4-8.3,19.124,1.342,19.124,1.342s.922-4.423,9.463-3.564c10.078,1.012,12.625,5.811,17.933,8.78,8.987,5.025,8.987,17.467,4.572,30.109-1.408,4.035.749,14.059,3.535,22.141A14.116,14.116,0,0,1,433.978,186.726Z" transform="translate(-344.332 -106.821)" fill="#a8e6cf"/>
        <path id="Path_96" data-name="Path 96" d="M385.483,117.925c5.116-3.247,11.383-4.72,12.383,2.179.646,4.455,1.188,5.5,2.869,12.21,3.591,14.342-5.777,24.3-19.348,20.321-13.8-4.042-16.921-10.09-16.413-27.077.373-12.471,7.641-8.05,7.641-8.05S377.7,122.865,385.483,117.925Z" transform="translate(-314.689 -94.752)" fill="#fff"/>
        <path id="Path_97" data-name="Path 97" d="M378.8,121.107c0,1.134-.456,2.054-1.02,2.054s-1.017-.92-1.017-2.054.456-2.054,1.017-2.054S378.8,119.973,378.8,121.107Z" transform="translate(-297.64 -89.212)" fill="#252d3b"/>
        <path id="Path_98" data-name="Path 98" d="M373.426,121.424c.271,1.086.054,2.122-.485,2.315s-1.193-.532-1.464-1.617-.056-2.125.483-2.318S373.155,120.336,373.426,121.424Z" transform="translate(-305.425 -88.176)" fill="#252d3b"/>
        <path id="Path_99" data-name="Path 99" d="M381.91,125.652a17.448,17.448,0,0,1-8.99,1.059s2.642,5.6,5.6,5.077S381.91,125.652,381.91,125.652Z" transform="translate(-303.177 -79.713)" fill="none" stroke="#252d3b" stroke-linecap="round" stroke-miterlimit="10" stroke-width="0.5"/>
        <path id="Path_100" data-name="Path 100" d="M390.3,138.143a18.062,18.062,0,0,0,2.913,12.661s3.379,11.258-.044,22.971a5.073,5.073,0,0,1-8.138,2.386c-5.928-4.989-14.913-13.881-17.394-23.647,0,0,.439-17.743-1.839-26.986C365.8,125.528,388.783,136.94,390.3,138.143Z" transform="translate(-313.43 -79.891)" fill="#fff"/>
        <path id="Path_101" data-name="Path 101" d="M385.058,132.319a22.305,22.305,0,0,1-13.281-2.169c-6.943-3.471,2.74,9.868,13.886,9.319C385.663,139.47,384.638,137.045,385.058,132.319Z" transform="translate(-308.187 -74.068)" fill="#252d3b"/>
        <path id="Path_102" data-name="Path 102" d="M375.914,118.324a11.553,11.553,0,0,1,5.426,1.017C383.713,120.585,378.288,113.8,375.914,118.324Z" transform="translate(-298.867 -92.528)" fill="#252d3b"/>
        <path id="Path_103" data-name="Path 103" d="M374.022,119.042s-2.937,1.132-4.069,2.6S369.389,115.2,374.022,119.042Z" transform="translate(-308.166 -90.76)" fill="#252d3b"/>
        <path id="Path_104" data-name="Path 104" d="M371.865,124.978s-3.652-3.959-7.458-3.2-.912,12.176,7,9.895S371.865,124.978,371.865,124.978Z" transform="translate(-317.824 -85.428)" fill="#fff"/>
        <path id="Path_105" data-name="Path 105" d="M367.667,125.2s-1.117-2.871-3.908-2.552" transform="translate(-316.365 -84.068)" fill="none" stroke="#252d3b" stroke-linecap="round" stroke-miterlimit="10" stroke-width="0.5"/>
      </g>
      <path id="Path_106" data-name="Path 106" d="M412.763,132.11s5.028.334,6.423,3.125c1.181,2.361-6.25,2.669-6.25,2.669" transform="translate(-200.152 -70.416)" fill="#fff" stroke="#252d3b" stroke-linecap="round" stroke-miterlimit="10" stroke-width="0.5"/>
      <path id="Path_107" data-name="Path 107" d="M403.176,168.392s3.152.224,0-11.027-2.7-30.158,4.5-30.606,8.587,4.623,8.587,4.623,6.889-1.164,7.672,4.716a5.49,5.49,0,0,1,4.481,2.471c1.83,2.615-.783,6.143-.39,15.291s4.313,18.3-7.058,25.879.393.915.393.915Z" transform="translate(-216.629 -78.161)" fill="#fff" stroke="#252d3b" stroke-linecap="round" stroke-miterlimit="10" stroke-width="0.5"/>
      <g id="Group_69" data-name="Group 69" transform="translate(166.289 40.664)">
        <path id="Path_108" data-name="Path 108" d="M394.83,124.545c.515.156,57.232,34.863,57.232,34.863Z" transform="translate(-392.257 -121.97)" fill="#fff"/>
        <path id="Path_109" data-name="Path 109" d="M453.578,163.5a55.045,55.045,0,0,1,5.45,1.2s-2.891-5.225-4.1-5.967c-57-34.878-57.42-35.007-57.827-35.132a2.572,2.572,0,0,0-1.874,4.774c1.976,1.1,35.078,21.322,57.015,34.746A2.565,2.565,0,0,0,453.578,163.5Z" transform="translate(-393.775 -123.49)" fill="#252d3b"/>
      </g>
      <path id="Path_110" data-name="Path 110" d="M515.178,258.006c-.6-1.149-1.19-2.359-1.783-3.613H325.611V175.974c0-19.448,16.594-35.217,37.081-35.217H476.577a38.98,38.98,0,0,1,8.89,1.022,37.325,37.325,0,0,1,20.841,13.12,33.814,33.814,0,0,1,7.35,21.495c-.154,12.678,0,27.969.4,44.514.044,2.422.11,4.867.176,7.353.044,1.505.088,3.03.132,4.555,0,.437.022.856.044,1.273,0,.69.022,1.359.044,2.047v.022c.176,5.994.4,12.1.615,18.236C515.088,255.606,515.134,256.8,515.178,258.006Z" transform="translate(-325.611 -57.969)" fill="#252d3b"/>
      <path id="Path_111" data-name="Path 111" d="M524.9,225.378c-1.935,5.862-4.113,10.449-6.382,13.11a9.082,9.082,0,0,1-2,1.839A18.75,18.75,0,0,1,507.3,243.1a24.87,24.87,0,0,1-6.492-.52c-.088-.02-.2-.041-.288-.063-.307-.066-.637-.129-.944-.217.022.088.022.173.044.261a.194.194,0,0,0,.022.107c.088.649.2,1.3.329,1.925.11.649.22,1.3.373,1.925-.022.022-.022.022,0,.044a90.721,90.721,0,0,0,5.987,18.887H391.037a60.041,60.041,0,0,1,2.971-12.115c-1.166.476-42.275,17.914-58.076-6.772a38.4,38.4,0,0,1-5.26-14.581c-1.364-8.307,6.667-23.712,9.77-33.253,8.385-25.637,18.641-41.56,30.809-50.969,13.359-10.341,28.984-12.852,46.986-11.771h.2c2.442.154,4.95.368,7.482.629,5.831.627,12.125.237,18.045-.11a.188.188,0,0,0,.154,0c7.9-.432,15.14-.778,19.851,1.386A42.441,42.441,0,0,1,478.4,148.813c6.56,7.572,10.7,17.309,13.425,27.867,2.62-5.408,5.238-10.341,7.416-14.279,3.1-5.648,5.282-9.239,5.282-9.239.639-.044,1.276-.088,1.915-.129,12.215-.542,20.224,4.045,23.085,6.035a12.747,12.747,0,0,1,1.166.866C533.685,182,530.34,208.784,524.9,225.378Z" transform="translate(-318.546 -65.173)" fill="#fff" stroke="#252d3b" stroke-linecap="round" stroke-miterlimit="10" stroke-width="0.5"/>
      <path id="Path_112" data-name="Path 112" d="M388.375,154.979s6.414,10.734,3.481,22.463-9.958,32.595-7.741,44.807" transform="translate(-242.003 -37.495)" fill="none" stroke="#fff" stroke-linecap="round" stroke-miterlimit="10" stroke-width="0.5"/>
      <path id="Path_113" data-name="Path 113" d="M425.427,180.958s-9.875-5.94-16.725-13.532c-7.094-7.86-44.341.037-44.341.037s-3.711,13.5,6.074,19.568,40.526-.8,40.9-4.2-6.977-10.373-6.977-10.373,15.464,11.693,19.236,12.071S425.427,180.958,425.427,180.958Z" transform="translate(-270.823 -24.593)" fill="#fff" stroke="#252d3b" stroke-linecap="round" stroke-miterlimit="10" stroke-width="0.5"/>
      <path id="Path_114" data-name="Path 114" d="M377.408,169.194a29.473,29.473,0,0,1,5.591,4.66" transform="translate(-251.047 -17.032)" fill="#fff" stroke="#252d3b" stroke-linecap="round" stroke-miterlimit="10" stroke-width="0.5"/>
      <path id="Path_115" data-name="Path 115" d="M374.354,169.863a23.55,23.55,0,0,1,3.259,3.027" transform="translate(-255.443 -16.069)" fill="#fff" stroke="#252d3b" stroke-linecap="round" stroke-miterlimit="10" stroke-width="0.5"/>
      <path id="Path_116" data-name="Path 116" d="M389,165.385s-18.584.6-42.448,12.056" transform="translate(-295.464 -22.516)" fill="#fff" stroke="#252d3b" stroke-linecap="round" stroke-miterlimit="10" stroke-width="0.5"/>
      <path id="Path_117" data-name="Path 117" d="M357.129,153.6s-1.432,24.342-5.25,34.842" transform="translate(-287.797 -39.478)" fill="#fff" stroke="#252d3b" stroke-linecap="round" stroke-miterlimit="10" stroke-width="0.5"/>
      <path id="Path_118" data-name="Path 118" d="M447.664,184.836s-38.774-18.5-77.7-12.578l-1.717,19.577,83.576,1.822Z" transform="translate(-264.237 -14.305)" fill="#fff" stroke="#252d3b" stroke-linecap="round" stroke-miterlimit="10" stroke-width="0.5"/>
      <path id="Path_119" data-name="Path 119" d="M417.165,183.719s19.7-16.386,58.622-10.468l1.717,19.58-83.576,1.822Z" transform="translate(-227.266 -13.047)" fill="#fff" stroke="#252d3b" stroke-linecap="round" stroke-miterlimit="10" stroke-width="0.5"/>
      <path id="Path_120" data-name="Path 120" d="M367.278,135.094s7.714-3.986,7.714-17.411S355.285,119.146,367.278,135.094Z" transform="translate(-271.201 -98.698)" fill="#a8e6cf"/>
      <path id="Path_121" data-name="Path 121" d="M420.8,136.343c-.473-2.2-1.444-1.576-1.444-1.576l-4.057-2.154-6.582-3.242-2.252.259,1.7,8.731s.464,6.775,3.569,4.445c.476-.356.476-1.044.534-1.422.268.661,1.293,3.769,3.262,2.074,0,0,.283,4.391,3.85,2.235C421.312,144.523,421.363,138.949,420.8,136.343Z" transform="translate(-209.215 -74.359)" fill="#fff"/>
      <path id="Path_122" data-name="Path 122" d="M403.455,147.012a13.868,13.868,0,0,0,1.452-8.946c-.781-5.479,3.02-9.058,4.811-8.163s7.267,15.1.334,24.825" transform="translate(-213.551 -73.789)" fill="#fff" stroke="#252d3b" stroke-linecap="round" stroke-miterlimit="10" stroke-width="0.5"/>
      <path id="Path_123" data-name="Path 123" d="M415.115,136.475s-2.957,5.418-4.64-1.478" transform="translate(-203.446 -66.26)" fill="#fff" stroke="#252d3b" stroke-linecap="round" stroke-miterlimit="10" stroke-width="0.5"/>
      <path id="Path_124" data-name="Path 124" d="M404.458,127.1c5.921.732,14.359-2.3,15.552.89s-3.464,6.872-9.758,4.964" transform="translate(-212.107 -78.498)" fill="#fff" stroke="#252d3b" stroke-linecap="round" stroke-miterlimit="10" stroke-width="0.5"/>
      <path id="Path_125" data-name="Path 125" d="M407.968,132.444s-.012,6.326,1.6,8.636c0,0,1.483,3.081,4.15.178s.642-10.688.642-10.688" transform="translate(-207.055 -72.633)" fill="none" stroke="#252d3b" stroke-linecap="round" stroke-miterlimit="10" stroke-width="0.5"/>
      <path id="Path_126" data-name="Path 126" d="M365.858,126.008s2.537,12.193.954,23.659" transform="translate(-267.674 -79.2)" fill="none" stroke="#252d3b" stroke-linecap="round" stroke-miterlimit="10" stroke-width="0.5"/>
      <path id="Path_127" data-name="Path 127" d="M375.924,130.971s.8,10.927,2.64,12.376" transform="translate(-253.183 -72.056)" fill="none" stroke="#252d3b" stroke-linecap="round" stroke-miterlimit="10" stroke-width="0.5"/>
      <path id="Path_128" data-name="Path 128" d="M400.185,152.817s-4.8,10.268-6.013,19.236" transform="translate(-226.914 -40.608)" fill="none" stroke="#252d3b" stroke-linecap="round" stroke-miterlimit="10" stroke-width="0.5"/>
      <path id="Path_129" data-name="Path 129" d="M413.276,181.131c0-3.249-3.14-5.882-7.014-5.882s-7.011,2.632-7.011,5.882,3.14,5.882,7.011,5.882S413.276,184.38,413.276,181.131Z" transform="translate(-219.603 -8.316)" fill="#fff" stroke="#252d3b" stroke-linecap="round" stroke-miterlimit="10" stroke-width="0.5"/>
      <path id="Path_130" data-name="Path 130" d="M532.388,182.808h0a3.7,3.7,0,0,0-3.54-3.352l-83.391-.72-.024.263-79.253-.683a3.717,3.717,0,0,0-3.62,3.5l-.093,1.005a3.778,3.778,0,0,0,3.6,4.262l162.761.134A3.8,3.8,0,0,0,532.388,182.808Z" transform="translate(-272.582 -3.899)" fill="#252d3b"/>
      <ellipse id="Ellipse_5" data-name="Ellipse 5" cx="14.089" cy="15.514" rx="14.089" ry="15.514" transform="translate(103.68 89.043)" fill="#a8e6cf"/>
      <path id="Path_131" data-name="Path 131" d="M382.656,159.59c-3.364,5.828-9.758,8.438-14.279,5.828s-5.457-9.451-2.093-15.281,9.758-8.436,14.279-5.826S386.023,153.762,382.656,159.59Z" transform="translate(-269.966 -54.311)" fill="none" stroke="#252d3b" stroke-linecap="round" stroke-miterlimit="10" stroke-width="0.5"/>
      <path id="Path_132" data-name="Path 132" d="M365.3,140.149l1.583-7.192s15.533,3.02,28.189,0l2.157,7.624S383.707,150.217,365.3,140.149Z" transform="translate(-268.483 -69.197)" fill="#fff" stroke="#252d3b" stroke-linecap="round" stroke-miterlimit="10" stroke-width="0.5"/>
      <g id="Group_70" data-name="Group 70" transform="translate(40.446 42.249)">
        <path id="Path_133" data-name="Path 133" d="M343.038,156.7a.611.611,0,0,1-.593-.461c-1.19-4.764,1.547-12.2,13.186-17.462,11.085-5.021,12.912-14.052,12.93-14.142a.609.609,0,1,1,1.2.224c-.073.393-1.932,9.731-13.625,15.028-10.954,4.957-13.581,11.749-12.5,16.057a.611.611,0,0,1-.444.739A.62.62,0,0,1,343.038,156.7Z" transform="translate(-342.19 -124.14)" fill="#a8e6cf"/>
      </g>
    </g>
    <path id="Path_134" data-name="Path 134" d="M626.029,192.27a8.9,8.9,0,0,1-8.875,8.895H320.528a8.885,8.885,0,0,1,0-17.77H617.154A8.9,8.9,0,0,1,626.029,192.27Z" transform="translate(-302.409 54.592)" fill="#e9f9f3"/>
  </g>
</svg>
