<svg xmlns="http://www.w3.org/2000/svg" xmlns:xlink="http://www.w3.org/1999/xlink" width="204.407" height="56.958" viewBox="0 0 204.407 56.958">
  <defs>
    <linearGradient id="linear-gradient" x1="0.251" y1="0.831" x2="0.754" y2="0.163" gradientUnits="objectBoundingBox">
      <stop offset="0" stop-color="#4ab38c"/>
      <stop offset="1" stop-color="#96e8a2"/>
    </linearGradient>
    <clipPath id="clip-path">
      <path id="Path_38" data-name="Path 38" d="M3662.416,328.817l.125-.074,2.7-1.582,5.4-3.164-5.4-3.164-2.7-1.582-.125-.074Zm-43.109,15.748V341.4l2.7-1.582,2.7,1.582,2.7,1.583,2.7,1.582,2.7,1.582,2.7-1.582,2.7-1.582,2.7-1.583,2.7-1.582,2.7-1.583v6.329l-2.7,1.582-2.7,1.583-2.7,1.582-2.7,1.583-2.7,1.581-2.7-1.581-2.7-1.583-2.7-1.582-2.7-1.583Zm40.818-28.479h-2.988l-2.7-1.583-2.7-1.582-2.7-1.582-2.7-1.583-2.7-1.582-2.7-1.582-2.7-1.583-2.7-1.582-2.7-1.583-2.7,1.583-2.7,1.582-2.7,1.582-2.7,1.583-2.7,1.582-2.7,1.583-2.7,1.582-2.7,1.582-2.7,1.583-2.7,1.582-2.7,1.583-2.7,1.582-5.4,3.164,5.4,3.164,2.7,1.582,2.7,1.582,2.7,1.583,2.7,1.582,2.7,1.583,2.7,1.582-2.7,1.582v9.494l2.7,1.582,2.7,1.583,2.7,1.581,2.7,1.583,2.7,1.583,2.7,1.581,2.7,1.583,2.7-1.583,2.7-1.581,2.7-1.583,2.7-1.583,2.7-1.581,2.7-1.583,2.7-1.582V335.073l2.7-1.583,2.7-1.582,2.6-1.519v4.8a1.173,1.173,0,0,0-.561,1.1,1.329,1.329,0,1,0,2.658,0,1.173,1.173,0,0,0-.561-1.1V317.247A1.155,1.155,0,0,0,3660.125,316.087ZM3605.8,324l2.7-1.583,2.7-1.582,2.7-1.582,2.7-1.583,2.7-1.582,2.7-1.582,2.7-1.583,2.7-1.582,2.7-1.583,2.7-1.582,2.7,1.582,2.7,1.583-2.7,1.582-2.7,1.582-2.7,1.583-2.7,1.582-2.7,1.583-2.7,1.582-2.7,1.582L3616.6,324l2.7,1.582,2.7,1.583,2.7-1.583,2.7-1.582,2.7-1.583,2.7-1.582,2.7-1.582,2.7-1.583,2.7-1.582,2.7-1.582,2.7,1.582,2.7,1.582,2.7,1.583,2.7,1.582,2.7,1.582,2.6,1.52v.125l-2.6,1.519-2.7,1.583-2.7,1.582-2.7,1.582-2.7,1.583-2.7,1.582-2.7,1.583-2.7,1.582-2.7,1.582-2.7,1.583-2.7-1.583-2.7-1.582,2.7-1.582,2.7-1.583,2.7-1.582,2.7-1.583,2.7-1.582,2.7-1.582,2.7-1.583,2.7-1.582-2.7-1.583-2.7-1.582-2.7,1.582-2.7,1.583-2.7,1.582-2.7,1.583-2.7,1.582-2.7,1.582-2.7,1.583-2.7,1.582-2.7-1.582-2.7-1.583-2.7-1.582-2.7-1.582-2.7-1.583Zm54.111,13.835-.231.8-.825,2.837h3.3l-.824-2.837-.23-.8a1.315,1.315,0,0,1-1.187,0Z" transform="translate(-3594.988 -301.847)" fill="url(#linear-gradient)"/>
    </clipPath>
  </defs>
  <g id="Group_90" data-name="Group 90" transform="translate(-33.17 -12.72)">
    <g id="Group_41" data-name="Group 41" transform="translate(33.17 12.72)" clip-path="url(#clip-path)">
      <rect id="Rectangle_32" data-name="Rectangle 32" width="75.66" height="56.958" transform="translate(0 0)" fill="url(#linear-gradient)"/>
    </g>
    <g id="Group_89" data-name="Group 89" transform="translate(108 -50.098)">
      <path id="Path_39" data-name="Path 39" d="M3374.254,1338.043h12.314v-2.83h-9.249V1320.2h-3.066Zm-8.433-8.9a6.875,6.875,0,0,1-.439,2.459,6.232,6.232,0,0,1-1.219,2.013,5.9,5.9,0,0,1-6.685,1.34,5.88,5.88,0,0,1-1.9-1.378,6.265,6.265,0,0,1-1.231-2.026,7.087,7.087,0,0,1,0-4.919,6.223,6.223,0,0,1,1.219-2.013,5.892,5.892,0,0,1,6.685-1.339,5.893,5.893,0,0,1,1.9,1.378,6.269,6.269,0,0,1,1.231,2.026A6.874,6.874,0,0,1,3365.821,1329.148Zm3.242-.051a9.456,9.456,0,0,0-.678-3.568,9.062,9.062,0,0,0-1.885-2.931,8.864,8.864,0,0,0-2.89-1.975,9.284,9.284,0,0,0-3.72-.726,9.1,9.1,0,0,0-6.635,2.739,8.989,8.989,0,0,0-1.91,2.944,9.73,9.73,0,0,0,0,7.137,9.045,9.045,0,0,0,1.885,2.931,8.864,8.864,0,0,0,2.891,1.975,9.286,9.286,0,0,0,3.719.726,9.1,9.1,0,0,0,6.635-2.739,8.992,8.992,0,0,0,1.91-2.944A9.456,9.456,0,0,0,3369.063,1329.1Zm-26.049.051a6.876,6.876,0,0,1-.44,2.459,6.21,6.21,0,0,1-1.218,2.013,5.9,5.9,0,0,1-6.685,1.34,5.869,5.869,0,0,1-1.9-1.378,6.244,6.244,0,0,1-1.231-2.026,7.09,7.09,0,0,1,0-4.919,6.2,6.2,0,0,1,1.219-2.013,5.892,5.892,0,0,1,6.684-1.339,5.891,5.891,0,0,1,1.9,1.378,6.239,6.239,0,0,1,1.231,2.026A6.874,6.874,0,0,1,3343.014,1329.148Zm3.242-.051a9.456,9.456,0,0,0-.678-3.568,9.037,9.037,0,0,0-1.886-2.931,8.852,8.852,0,0,0-2.889-1.975,9.287,9.287,0,0,0-3.72-.726,9.1,9.1,0,0,0-6.635,2.739,8.988,8.988,0,0,0-1.909,2.944,9.713,9.713,0,0,0,0,7.137,9.021,9.021,0,0,0,1.885,2.931,8.852,8.852,0,0,0,2.89,1.975,9.286,9.286,0,0,0,3.719.726,9.1,9.1,0,0,0,6.634-2.739,8.984,8.984,0,0,0,1.911-2.944A9.456,9.456,0,0,0,3346.256,1329.1Zm-26.652,1.427v7.52h3.066V1320.2H3319.6v7.416h-8.445V1320.2h-3.066v17.842h3.066v-7.52Zm-16.2,4.665-1.985-2.038a10.872,10.872,0,0,1-2.287,1.693,5.725,5.725,0,0,1-2.764.625,5.46,5.46,0,0,1-2.325-.5,5.669,5.669,0,0,1-1.847-1.365,6.2,6.2,0,0,1-1.206-2.026,7.117,7.117,0,0,1-.427-2.485,7.01,7.01,0,0,1,.427-2.472,6.083,6.083,0,0,1,1.206-2,5.766,5.766,0,0,1,1.847-1.352,5.462,5.462,0,0,1,2.325-.5,5.778,5.778,0,0,1,2.689.612,9.926,9.926,0,0,1,2.236,1.606l1.986-2.32a12.309,12.309,0,0,0-1.332-1.122,8.588,8.588,0,0,0-1.534-.879,8.816,8.816,0,0,0-1.822-.573,10.943,10.943,0,0,0-2.2-.2,9.036,9.036,0,0,0-3.669.726,8.815,8.815,0,0,0-2.865,1.987,9.008,9.008,0,0,0-1.872,2.944,9.683,9.683,0,0,0-.666,3.594,9.57,9.57,0,0,0,.678,3.619,8.985,8.985,0,0,0,1.872,2.919,8.767,8.767,0,0,0,6.4,2.663,10.9,10.9,0,0,0,2.249-.216,8.049,8.049,0,0,0,1.872-.637,9.4,9.4,0,0,0,1.6-.995A11.419,11.419,0,0,0,3303.405,1335.188Zm-30.246-10.322a1.905,1.905,0,0,1,.754-1.518,3.222,3.222,0,0,1,2.111-.624,6.4,6.4,0,0,1,2.387.472,10.828,10.828,0,0,1,2.386,1.363l1.659-2.369a10.271,10.271,0,0,0-2.9-1.67,9.935,9.935,0,0,0-3.48-.573,7.569,7.569,0,0,0-2.409.369,5.478,5.478,0,0,0-1.888,1.058,4.883,4.883,0,0,0-1.684,3.772,5.148,5.148,0,0,0,.389,2.116,4.051,4.051,0,0,0,1.135,1.478,6.351,6.351,0,0,0,1.839,1.02,20.738,20.738,0,0,0,2.508.739,20.845,20.845,0,0,1,2,.586,5.119,5.119,0,0,1,1.211.6,1.72,1.72,0,0,1,.6.7,2.182,2.182,0,0,1,.164.868,1.944,1.944,0,0,1-.842,1.657,3.805,3.805,0,0,1-2.275.611,7.042,7.042,0,0,1-2.965-.6,10.806,10.806,0,0,1-2.588-1.721l-1.86,2.241a10.617,10.617,0,0,0,3.443,2.154,10.969,10.969,0,0,0,3.9.7,8.574,8.574,0,0,0,2.538-.356,5.621,5.621,0,0,0,1.973-1.045,4.832,4.832,0,0,0,1.286-1.683,5.356,5.356,0,0,0,.461-2.269,4.815,4.815,0,0,0-.364-1.949,4.19,4.19,0,0,0-1.072-1.452,6.085,6.085,0,0,0-1.776-1.058,19.654,19.654,0,0,0-2.455-.789c-.842-.205-1.533-.4-2.082-.586a5.208,5.208,0,0,1-1.286-.612,1.859,1.859,0,0,1-.641-.715A2.172,2.172,0,0,1,3273.159,1324.866Z" transform="translate(-3256.992 -1242.304)" fill="#07141c"/>
      <path id="Path_40" data-name="Path 40" d="M3626.219,1667.7h-3.7v5.075h3.738v-.8h-2.867v-1.356h2.51v-.806h-2.51v-1.3h2.832Zm-8.521,1.657a.775.775,0,0,1-.28.626,1.13,1.13,0,0,1-.752.232h-1.291v-1.711h1.283a1.2,1.2,0,0,1,.768.216A.755.755,0,0,1,3617.7,1669.362Zm1.052,3.418-1.352-1.921a1.884,1.884,0,0,0,.482-.207,1.552,1.552,0,0,0,.375-.327,1.532,1.532,0,0,0,.247-.443,1.682,1.682,0,0,0,.089-.568,1.7,1.7,0,0,0-.128-.672,1.373,1.373,0,0,0-.369-.508,1.682,1.682,0,0,0-.586-.318,2.471,2.471,0,0,0-.776-.113h-2.23v5.075h.872v-1.768h1.1l1.233,1.768Zm-8.178-5.075h-3.7v5.075h3.739v-.8h-2.867v-1.356h2.509v-.806h-2.509v-1.3h2.832Zm-8.708,2.937v2.138h.872V1667.7h-.872v2.109h-2.4V1667.7h-.873v5.075h.873v-2.138Zm-9.351-2.937h-3.7v5.075h3.74v-.8h-2.867v-1.356h2.509v-.806h-2.509v-1.3h2.831Zm-8.707,3.509-2.675-3.509h-.814v5.075h.872v-3.61l2.754,3.61h.736V1667.7h-.873Zm-8.55-3.509v5.075h.872V1667.7Zm-7.319,5.075h3.5v-.8h-2.632V1667.7h-.871Zm-3.988-.7v-2.133h-2.131v.777h1.279v.955a1.9,1.9,0,0,1-.539.281,2.113,2.113,0,0,1-.669.105,1.715,1.715,0,0,1-.7-.138,1.612,1.612,0,0,1-.537-.383,1.7,1.7,0,0,1-.346-.577,2.09,2.09,0,0,1-.122-.726,1.942,1.942,0,0,1,.125-.7,1.841,1.841,0,0,1,.343-.573,1.607,1.607,0,0,1,.515-.39,1.469,1.469,0,0,1,.64-.141,2.116,2.116,0,0,1,.432.04,2.008,2.008,0,0,1,.362.109,1.813,1.813,0,0,1,.314.17,3.2,3.2,0,0,1,.293.225l.558-.675a3.375,3.375,0,0,0-.4-.294,2.532,2.532,0,0,0-.434-.212,2.64,2.64,0,0,0-.5-.134,3.341,3.341,0,0,0-.6-.047,2.545,2.545,0,0,0-1.86.779,2.573,2.573,0,0,0-.532.838,2.729,2.729,0,0,0-.19,1.015,2.847,2.847,0,0,0,.187,1.036,2.462,2.462,0,0,0,.525.831,2.4,2.4,0,0,0,.819.55,2.72,2.72,0,0,0,1.066.2,3.063,3.063,0,0,0,.629-.062,2.936,2.936,0,0,0,.561-.17,3.149,3.149,0,0,0,.486-.252A4.206,4.206,0,0,0,3563.948,1672.078Zm-9.616-1.312h-1.724l.858-2.031Zm-.443-3.1h-.815l-2.2,5.111h.9l.516-1.225h2.367l.508,1.225h.929Zm-7.306.862h1.587v-.826h-4.062v.826h1.587v4.249h.887Z" transform="translate(-3514.182 -1567.867)" fill="#07141c"/>
    </g>
  </g>
</svg>
